<svg version="1.1" id="Layer_1" xmlns="http://www.w3.org/2000/svg" xmlns:xlink="http://www.w3.org/1999/xlink" x="0px" y="0px" viewBox="0 0 492 492" style="enable-background:new 0 0 492 492;" xml:space="preserve">
  <g>
    <g>
      <path d="M191.9,245.9L7.9,430C2.8,435,0,441.8,0,449c0,7.2,2.8,14,7.9,19L24,484.1c5.1,5.1,11.8,7.9,19,7.9s14-2.8,19-7.9
			L281.2,265c5.1-5.1,7.9-11.9,7.8-19.1c0-7.2-2.8-14-7.8-19.1L62.2,7.9C57.2,2.8,50.4,0,43.2,0c-7.2,0-14,2.8-19,7.9L8.1,24
			C-2.4,34.5-2.4,51.6,8.1,62L191.9,245.9z" style="
      fill: #fff"></path>
    </g>
  </g>
</svg>